<svg width="160" height="228" viewBox="0 0 160 228" fill="none" xmlns="http://www.w3.org/2000/svg">
<g filter="url(#filter0_dddd_11_918)">
<rect x="52.6842" y="10.0351" width="32" height="32" rx="8" fill="url(#paint0_radial_11_918)"/>
<rect x="53.3114" y="10.6623" width="30.7456" height="30.7456" rx="7.37281" stroke="url(#paint1_radial_11_918)" stroke-width="1.25439"/>
<path d="M75.0142 19.7051L63.2742 31.4451C62.8342 31.8851 62.0942 31.8251 61.7342 31.3051C60.4942 29.4951 59.7642 27.3551 59.7642 25.1551V20.7651C59.7642 19.9451 60.3842 19.0151 61.1442 18.7051L66.7142 16.4251C67.9742 15.9051 69.3742 15.9051 70.6342 16.4251L74.6842 18.0751C75.3442 18.3451 75.5142 19.2051 75.0142 19.7051Z" fill="white"/>
<path d="M75.9542 21.0751C76.6042 20.5251 77.5942 20.9951 77.5942 21.8451V25.1551C77.5942 30.0451 74.0442 34.6251 69.1942 35.9651C68.8642 36.0551 68.5042 36.0551 68.1642 35.9651C66.7442 35.5651 65.4242 34.8951 64.2942 34.0151C63.8142 33.6451 63.7642 32.9451 64.1842 32.5151C66.3642 30.2851 72.7442 23.7851 75.9542 21.0751Z" fill="white"/>
</g>
<path d="M98.5742 33.0351L93.4942 19.0351H96.0842L100.134 30.1851L104.194 19.0351H106.774L101.694 33.0351H98.5742ZM114.608 23.0351H117.048V33.0351H114.608L114.498 31.7951C114.224 32.2418 113.861 32.6051 113.408 32.8851C112.961 33.1584 112.431 33.2951 111.818 33.2951C111.078 33.2951 110.384 33.1551 109.738 32.8751C109.091 32.5951 108.521 32.2084 108.028 31.7151C107.541 31.2218 107.158 30.6518 106.878 30.0051C106.604 29.3584 106.468 28.6651 106.468 27.9251C106.468 27.2118 106.598 26.5418 106.858 25.9151C107.124 25.2884 107.494 24.7384 107.968 24.2651C108.441 23.7918 108.988 23.4218 109.608 23.1551C110.228 22.8884 110.894 22.7551 111.608 22.7551C112.268 22.7551 112.858 22.9018 113.378 23.1951C113.904 23.4884 114.351 23.8618 114.718 24.3151L114.608 23.0351ZM111.758 30.9451C112.278 30.9451 112.738 30.8151 113.138 30.5551C113.538 30.2951 113.851 29.9451 114.078 29.5051C114.304 29.0584 114.418 28.5684 114.418 28.0351C114.418 27.4951 114.304 27.0051 114.078 26.5651C113.851 26.1184 113.534 25.7651 113.128 25.5051C112.728 25.2451 112.271 25.1151 111.758 25.1151C111.244 25.1151 110.774 25.2484 110.348 25.5151C109.928 25.7751 109.591 26.1251 109.338 26.5651C109.091 27.0051 108.968 27.4951 108.968 28.0351C108.968 28.5751 109.094 29.0651 109.348 29.5051C109.601 29.9451 109.938 30.2951 110.358 30.5551C110.784 30.8151 111.251 30.9451 111.758 30.9451ZM118.64 29.3351V23.0351H121.08V28.6951C121.08 29.0884 121.177 29.4484 121.37 29.7751C121.564 30.0951 121.82 30.3518 122.14 30.5451C122.467 30.7318 122.824 30.8251 123.21 30.8251C123.61 30.8251 123.97 30.7318 124.29 30.5451C124.61 30.3518 124.867 30.0951 125.06 29.7751C125.254 29.4484 125.35 29.0884 125.35 28.6951V23.0351H127.79L127.8 33.0351H125.36L125.35 32.1251C125.004 32.4851 124.594 32.7718 124.12 32.9851C123.647 33.1918 123.14 33.2951 122.6 33.2951C121.874 33.2951 121.21 33.1184 120.61 32.7651C120.01 32.4051 119.53 31.9284 119.17 31.3351C118.817 30.7351 118.64 30.0684 118.64 29.3351ZM129.861 33.0351V18.0351H132.301V33.0351H129.861ZM140.065 25.4751H138.125V33.0351H135.685V25.4751H134.205V23.0351H135.685V19.8951H138.125V23.0351H140.065V25.4751ZM141.716 23.0351H144.156V33.0351H141.716V23.0351ZM142.956 21.7451C142.596 21.7451 142.293 21.6284 142.046 21.3951C141.8 21.1551 141.676 20.8551 141.676 20.4951C141.676 20.1418 141.8 19.8451 142.046 19.6051C142.293 19.3651 142.593 19.2451 142.946 19.2451C143.3 19.2451 143.596 19.3651 143.836 19.6051C144.083 19.8451 144.206 20.1418 144.206 20.4951C144.206 20.8551 144.086 21.1551 143.846 21.3951C143.606 21.6284 143.31 21.7451 142.956 21.7451ZM150.726 33.2951C149.806 33.2951 148.966 33.0584 148.206 32.5851C147.452 32.1118 146.849 31.4784 146.396 30.6851C145.949 29.8851 145.726 29.0018 145.726 28.0351C145.726 27.3018 145.856 26.6184 146.116 25.9851C146.376 25.3451 146.732 24.7851 147.186 24.3051C147.646 23.8184 148.179 23.4384 148.786 23.1651C149.392 22.8918 150.039 22.7551 150.726 22.7551C151.646 22.7551 152.482 22.9918 153.236 23.4651C153.996 23.9384 154.599 24.5751 155.046 25.3751C155.499 26.1751 155.726 27.0618 155.726 28.0351C155.726 28.7618 155.596 29.4418 155.336 30.0751C155.076 30.7084 154.716 31.2684 154.256 31.7551C153.802 32.2351 153.272 32.6118 152.666 32.8851C152.066 33.1584 151.419 33.2951 150.726 33.2951ZM150.726 30.8551C151.212 30.8551 151.649 30.7251 152.036 30.4651C152.422 30.2051 152.726 29.8618 152.946 29.4351C153.172 29.0084 153.286 28.5418 153.286 28.0351C153.286 27.5151 153.169 27.0418 152.936 26.6151C152.709 26.1818 152.399 25.8384 152.006 25.5851C151.619 25.3251 151.192 25.1951 150.726 25.1951C150.246 25.1951 149.812 25.3251 149.426 25.5851C149.039 25.8451 148.732 26.1918 148.506 26.6251C148.279 27.0584 148.166 27.5284 148.166 28.0351C148.166 28.5618 148.282 29.0384 148.516 29.4651C148.749 29.8918 149.059 30.2318 149.446 30.4851C149.839 30.7318 150.266 30.8551 150.726 30.8551Z" fill="white"/>
<defs>
<filter id="filter0_dddd_11_918" x="0" y="8.58307e-06" width="137.368" height="227.684" filterUnits="userSpaceOnUse" color-interpolation-filters="sRGB">
<feFlood flood-opacity="0" result="BackgroundImageFix"/>
<feColorMatrix in="SourceAlpha" type="matrix" values="0 0 0 0 0 0 0 0 0 0 0 0 0 0 0 0 0 0 127 0" result="hardAlpha"/>
<feOffset dy="8.7807"/>
<feGaussianBlur stdDeviation="9.40789"/>
<feColorMatrix type="matrix" values="0 0 0 0 0.556863 0 0 0 0 0.317647 0 0 0 0 1 0 0 0 0.16 0"/>
<feBlend mode="normal" in2="BackgroundImageFix" result="effect1_dropShadow_11_918"/>
<feColorMatrix in="SourceAlpha" type="matrix" values="0 0 0 0 0 0 0 0 0 0 0 0 0 0 0 0 0 0 127 0" result="hardAlpha"/>
<feOffset dy="32.614"/>
<feGaussianBlur stdDeviation="16.307"/>
<feColorMatrix type="matrix" values="0 0 0 0 0.176471 0 0 0 0 0.745098 0 0 0 0 0.909804 0 0 0 0.14 0"/>
<feBlend mode="normal" in2="effect1_dropShadow_11_918" result="effect2_dropShadow_11_918"/>
<feColorMatrix in="SourceAlpha" type="matrix" values="0 0 0 0 0 0 0 0 0 0 0 0 0 0 0 0 0 0 127 0" result="hardAlpha"/>
<feOffset dy="75.2632"/>
<feGaussianBlur stdDeviation="22.5789"/>
<feColorMatrix type="matrix" values="0 0 0 0 0.176471 0 0 0 0 0.745098 0 0 0 0 0.909804 0 0 0 0.08 0"/>
<feBlend mode="normal" in2="effect2_dropShadow_11_918" result="effect3_dropShadow_11_918"/>
<feColorMatrix in="SourceAlpha" type="matrix" values="0 0 0 0 0 0 0 0 0 0 0 0 0 0 0 0 0 0 127 0" result="hardAlpha"/>
<feOffset dy="132.965"/>
<feGaussianBlur stdDeviation="26.3421"/>
<feColorMatrix type="matrix" values="0 0 0 0 0.176471 0 0 0 0 0.745098 0 0 0 0 0.909804 0 0 0 0.02 0"/>
<feBlend mode="normal" in2="effect3_dropShadow_11_918" result="effect4_dropShadow_11_918"/>
<feBlend mode="normal" in="SourceGraphic" in2="effect4_dropShadow_11_918" result="shape"/>
</filter>
<radialGradient id="paint0_radial_11_918" cx="0" cy="0" r="1" gradientUnits="userSpaceOnUse" gradientTransform="translate(68.6842 10.0351) rotate(90) scale(32 35.706)">
<stop stop-color="#7F22FE"/>
<stop offset="1" stop-color="#2DBEE8"/>
</radialGradient>
<radialGradient id="paint1_radial_11_918" cx="0" cy="0" r="1" gradientUnits="userSpaceOnUse" gradientTransform="translate(68.2675 10.0351) rotate(90) scale(32 21.6709)">
<stop stop-color="#B9DCFF"/>
<stop offset="1" stop-color="#8E51FF"/>
</radialGradient>
</defs>
</svg>
